<mxfile host="app.diagrams.net" modified="2023-07-27T09:10:56.012Z" agent="Mozilla/5.0 (Windows NT 10.0; Win64; x64) AppleWebKit/537.36 (KHTML, like Gecko) Chrome/115.0.0.0 Safari/537.36" etag="gBbrzdAJxgPXbwFOwV_P" version="21.6.5" type="device">
  <diagram name="Page-1" id="5VGX4B9xoiKRE1uJR1DQ">
    <mxGraphModel dx="1015" dy="611" grid="1" gridSize="10" guides="1" tooltips="1" connect="1" arrows="1" fold="1" page="1" pageScale="1" pageWidth="850" pageHeight="1100" math="0" shadow="0">
      <root>
        <mxCell id="0" />
        <mxCell id="1" parent="0" />
        <mxCell id="i37GMi_hfIOGxnAa3iFj-13" value="FCAP &lt;br&gt;over Serial" style="edgeStyle=orthogonalEdgeStyle;rounded=0;orthogonalLoop=1;jettySize=auto;html=1;exitX=0.25;exitY=1;exitDx=0;exitDy=0;entryX=0.25;entryY=0;entryDx=0;entryDy=0;startArrow=classic;startFill=1;" edge="1" parent="1" source="i37GMi_hfIOGxnAa3iFj-5" target="i37GMi_hfIOGxnAa3iFj-7">
          <mxGeometry relative="1" as="geometry" />
        </mxCell>
        <mxCell id="i37GMi_hfIOGxnAa3iFj-5" value="Embedded SOC" style="rounded=1;whiteSpace=wrap;html=1;" vertex="1" parent="1">
          <mxGeometry x="110" y="210" width="120" height="60" as="geometry" />
        </mxCell>
        <mxCell id="i37GMi_hfIOGxnAa3iFj-6" value="Raspberry Pi" style="rounded=1;whiteSpace=wrap;html=1;" vertex="1" parent="1">
          <mxGeometry x="340" y="300" width="120" height="60" as="geometry" />
        </mxCell>
        <mxCell id="i37GMi_hfIOGxnAa3iFj-7" value="Arduino" style="rounded=1;whiteSpace=wrap;html=1;" vertex="1" parent="1">
          <mxGeometry x="110" y="410" width="120" height="60" as="geometry" />
        </mxCell>
        <mxCell id="i37GMi_hfIOGxnAa3iFj-20" style="edgeStyle=orthogonalEdgeStyle;rounded=0;orthogonalLoop=1;jettySize=auto;html=1;entryX=0.5;entryY=0;entryDx=0;entryDy=0;startArrow=classic;startFill=1;" edge="1" parent="1" source="i37GMi_hfIOGxnAa3iFj-8" target="i37GMi_hfIOGxnAa3iFj-9">
          <mxGeometry relative="1" as="geometry" />
        </mxCell>
        <mxCell id="i37GMi_hfIOGxnAa3iFj-21" value="FCAP&lt;br&gt;over MQTT" style="edgeLabel;html=1;align=center;verticalAlign=middle;resizable=0;points=[];" vertex="1" connectable="0" parent="i37GMi_hfIOGxnAa3iFj-20">
          <mxGeometry x="-0.0333" y="-3" relative="1" as="geometry">
            <mxPoint as="offset" />
          </mxGeometry>
        </mxCell>
        <mxCell id="i37GMi_hfIOGxnAa3iFj-8" value="Cloud Server" style="rounded=1;whiteSpace=wrap;html=1;" vertex="1" parent="1">
          <mxGeometry x="620" y="140" width="120" height="60" as="geometry" />
        </mxCell>
        <mxCell id="i37GMi_hfIOGxnAa3iFj-9" value="x86 Host" style="rounded=1;whiteSpace=wrap;html=1;" vertex="1" parent="1">
          <mxGeometry x="620" y="300" width="120" height="60" as="geometry" />
        </mxCell>
        <mxCell id="i37GMi_hfIOGxnAa3iFj-10" value="" style="endArrow=classic;startArrow=classic;html=1;rounded=0;entryX=0.75;entryY=1;entryDx=0;entryDy=0;exitX=0;exitY=0.25;exitDx=0;exitDy=0;" edge="1" parent="1" source="i37GMi_hfIOGxnAa3iFj-6" target="i37GMi_hfIOGxnAa3iFj-5">
          <mxGeometry width="50" height="50" relative="1" as="geometry">
            <mxPoint x="10" y="460" as="sourcePoint" />
            <mxPoint x="60" y="410" as="targetPoint" />
          </mxGeometry>
        </mxCell>
        <mxCell id="i37GMi_hfIOGxnAa3iFj-14" value="FCAP&lt;br&gt;over Ethernet" style="edgeLabel;html=1;align=center;verticalAlign=middle;resizable=0;points=[];" vertex="1" connectable="0" parent="i37GMi_hfIOGxnAa3iFj-10">
          <mxGeometry x="0.2472" y="-1" relative="1" as="geometry">
            <mxPoint x="17" y="4" as="offset" />
          </mxGeometry>
        </mxCell>
        <mxCell id="i37GMi_hfIOGxnAa3iFj-11" value="FCAP&lt;br&gt;over BLE" style="endArrow=classic;startArrow=classic;html=1;rounded=0;exitX=0.75;exitY=0;exitDx=0;exitDy=0;entryX=0;entryY=0.75;entryDx=0;entryDy=0;" edge="1" parent="1" source="i37GMi_hfIOGxnAa3iFj-7" target="i37GMi_hfIOGxnAa3iFj-6">
          <mxGeometry width="50" height="50" relative="1" as="geometry">
            <mxPoint x="120" y="440" as="sourcePoint" />
            <mxPoint x="170" y="390" as="targetPoint" />
          </mxGeometry>
        </mxCell>
        <mxCell id="i37GMi_hfIOGxnAa3iFj-16" value="" style="endArrow=classic;startArrow=classic;html=1;rounded=0;exitX=1;exitY=0.5;exitDx=0;exitDy=0;entryX=0;entryY=0.5;entryDx=0;entryDy=0;" edge="1" parent="1" source="i37GMi_hfIOGxnAa3iFj-6" target="i37GMi_hfIOGxnAa3iFj-9">
          <mxGeometry width="50" height="50" relative="1" as="geometry">
            <mxPoint x="490" y="320" as="sourcePoint" />
            <mxPoint x="540" y="270" as="targetPoint" />
          </mxGeometry>
        </mxCell>
        <mxCell id="i37GMi_hfIOGxnAa3iFj-19" value="FCAP&lt;br&gt;over TCP" style="edgeLabel;html=1;align=center;verticalAlign=middle;resizable=0;points=[];" vertex="1" connectable="0" parent="i37GMi_hfIOGxnAa3iFj-16">
          <mxGeometry x="-0.0824" y="2" relative="1" as="geometry">
            <mxPoint y="2" as="offset" />
          </mxGeometry>
        </mxCell>
      </root>
    </mxGraphModel>
  </diagram>
</mxfile>
